HIERARCHY
ROOT Hips
{
	OFFSET 0.000000 0.000000 0.000000
	CHANNELS 6 Xposition Yposition Zposition Zrotation Xrotation Yrotation
	JOINT RightUpLeg
	{
		OFFSET -10.032200 0.000000 0.000000
		CHANNELS 3 Zrotation Xrotation Yrotation
		JOINT RightLeg
		{
			OFFSET 0.000000 -40.977000 0.000000
			CHANNELS 3 Zrotation Xrotation Yrotation
			JOINT RightFoot
			{
				OFFSET 0.000000 -38.933200 0.000000
				CHANNELS 3 Zrotation Xrotation Yrotation
				JOINT RightToe
				{
					OFFSET 0.000000 -1.977400 9.184000
					CHANNELS 3 Zrotation Xrotation Yrotation
					JOINT RightToeEnd
					{
						OFFSET 0.000000 2.335600 6.099100
						CHANNELS 3 Zrotation Xrotation Yrotation
						End Site
						{
						    OFFSET 0.000000 1.788000 4.669400
						}
					}
				}
			}
		}
	}
	JOINT LeftUpLeg
	{
		OFFSET 10.032200 0.000000 0.000000
		CHANNELS 3 Zrotation Xrotation Yrotation
		JOINT LeftLeg
		{
			OFFSET 0.000000 -40.977000 0.000000
			CHANNELS 3 Zrotation Xrotation Yrotation
			JOINT LeftFoot
			{
				OFFSET 0.000000 -38.933200 0.000000
				CHANNELS 3 Zrotation Xrotation Yrotation
				JOINT LeftToe
				{
					OFFSET 0.000000 -1.977400 9.184000
					CHANNELS 3 Zrotation Xrotation Yrotation
					JOINT LeftToeEnd
					{
						OFFSET 0.000000 2.335600 6.099100
						CHANNELS 3 Zrotation Xrotation Yrotation
						End Site
						{
						    OFFSET 0.000000 1.788000 4.669400
						}
					}
				}
			}
		}
	}
	JOINT Spine
	{
		OFFSET 0.000000 16.960900 0.000000
		CHANNELS 3 Zrotation Xrotation Yrotation
		JOINT Spine1
		{
			OFFSET 0.000000 13.413900 0.000000
			CHANNELS 3 Zrotation Xrotation Yrotation
			JOINT Spine2
			{
				OFFSET 0.000000 10.384400 0.000000
				CHANNELS 3 Zrotation Xrotation Yrotation
				JOINT LeftShoulder
				{
					OFFSET 2.000000 10.384400 0.000000
					CHANNELS 3 Zrotation Xrotation Yrotation
					JOINT LeftArm
					{
						OFFSET 15.649100 0.000000 0.000000
						CHANNELS 3 Zrotation Xrotation Yrotation
						JOINT LeftForeArm
						{
							OFFSET 0.000000 -26.641600 0.000000
							CHANNELS 3 Zrotation Xrotation Yrotation
							JOINT LeftHand
							{
								OFFSET 0.000000 -23.740600 0.000000
								CHANNELS 3 Zrotation Xrotation Yrotation
								JOINT LeftFinger0
								{
									OFFSET 0.000000 -7.620900 0.000000
									CHANNELS 3 Zrotation Xrotation Yrotation
									End Site
									{
									    OFFSET 0.000000 -5.000000 0.000000
									}
								}
							}
						}
					}
				}
				JOINT RightShoulder
				{
					OFFSET -2.000000 10.384400 0.000000
					CHANNELS 3 Zrotation Xrotation Yrotation
					JOINT RightArm
					{
						OFFSET -15.649100 0.000000 0.000000
						CHANNELS 3 Zrotation Xrotation Yrotation
						JOINT RightForeArm
						{
							OFFSET 0.000000 -26.641600 0.000000
							CHANNELS 3 Zrotation Xrotation Yrotation
							JOINT RightHand
							{
								OFFSET 0.000000 -23.740600 0.000000
								CHANNELS 3 Zrotation Xrotation Yrotation
								JOINT RightFinger0
								{
									OFFSET 0.000000 -7.620900 0.000000
									CHANNELS 3 Zrotation Xrotation Yrotation
									End Site
									{
									    OFFSET 0.000000 -5.000000 0.000000
									}
								}
							}
						}
					}
				}
				JOINT Neck
				{
					OFFSET 0.000000 10.384400 0.000000
					CHANNELS 3 Zrotation Xrotation Yrotation
					JOINT Head
					{
						OFFSET 0.000000 10.146900 0.000000
						CHANNELS 3 Zrotation Xrotation Yrotation
						JOINT HeadTip
						{
							OFFSET 0.000000 10.000000 0.000000
							CHANNELS 3 Zrotation Xrotation Yrotation
							End Site
							{
							    OFFSET 0.000000 5.000000 0.000000
							}
						}
					}
				}
			}
		}
	}
}
MOTION
Frames:	8
Frame Time:	0.033332
119.584300 82.693100 56.148200 -8.111598 -22.609770 167.640464 -29.624798 -46.883138 -45.439969 0.000000 32.135176 0.000000 8.482338 19.250315 -2.571069 0.000000 5.436469 -0.000000 -0.000000 -0.000000 -0.000000 35.837848 -49.650895 63.013066 -0.000000 28.877318 0.000000 -1.790077 42.991058 -8.031387 -0.000000 13.025649 -0.000000 0.000000 0.000000 -0.000000 2.092654 51.347557 0.804639 -0.000000 10.904946 -0.000000 -0.000000 -0.000000 0.000000 -6.959076 -0.000000 -0.880036 29.596831 -6.270841 -44.474671 180.000037 -70.478300 -180.000037 -10.444543 1.130080 -5.012805 0.000000 0.000000 0.000000 -1.793958 -0.000000 -0.346062 -65.053163 -14.329926 -22.959302 -0.000323 -64.781687 -0.000205 -12.693501 6.740623 31.465811 -0.000000 0.000000 0.000000 -0.000000 -0.000000 0.000000 -1.528551 38.962915 6.179746 -0.000000 0.000000 -0.000000 
120.147300 83.817200 56.407900 -8.821228 -22.588893 168.255130 -28.805492 -45.203224 -45.740423 0.000000 28.548626 0.000000 8.058328 20.917378 -2.522949 -0.000000 6.454593 -0.000000 -0.000000 0.000000 0.000000 33.241774 -50.059825 60.590652 0.000000 34.655755 0.000000 -4.182921 37.234481 -0.094997 -0.000000 8.970230 -0.000000 -0.000000 0.000000 0.000000 2.132408 50.029032 -0.653189 0.000000 11.419771 -0.000000 -0.000000 0.000000 0.000000 -6.875771 0.000000 0.283469 29.366167 -5.911711 -44.137600 -180.000037 -70.517355 -180.000037 -9.888169 1.119021 -5.558006 -0.000000 -0.000000 -0.000000 -0.233386 0.000000 -1.306674 -62.020813 -7.713478 -23.976184 -0.000294 -62.687161 -0.000179 -14.138829 6.995996 31.213783 -0.000000 0.000000 -0.000000 -0.000000 0.000000 0.000000 -1.920132 38.925518 7.589265 -0.000000 0.000000 -0.000000 
120.510000 84.439600 56.663500 -9.098076 -22.753544 168.825109 -28.344658 -44.234548 -46.531213 0.000000 26.307635 -0.000000 7.581211 21.982440 -2.277014 0.000000 7.045358 -0.000000 0.000000 0.000000 -0.000000 30.972105 -50.520735 58.359583 0.000000 40.601368 0.000000 -3.917050 32.591027 3.684509 -0.000000 5.385097 -0.000000 0.000000 0.000000 -0.000000 2.574666 48.421192 -2.010354 -0.000000 11.863764 -0.000000 -0.000000 0.000000 0.000000 -6.633690 -0.000000 1.198030 28.918829 -5.526113 -44.071772 -180.000037 -70.738906 -180.000037 -9.829487 1.132668 -6.089933 0.000000 -0.000000 -0.000000 0.623751 0.000000 -2.301795 -58.238863 -1.938916 -24.917514 -0.000262 -59.831541 -0.000151 -15.300730 7.711907 31.663548 -0.000000 -0.000000 -0.000000 -0.000000 0.000000 0.000000 -2.420702 39.049383 8.334077 -0.000000 0.000000 -0.000000 
120.718600 84.615500 56.815000 -9.004328 -22.700720 168.797906 -27.674918 -43.869168 -46.637227 0.000000 25.398098 0.000000 7.487324 22.405191 -2.017830 0.000000 7.298566 -0.000000 -0.000000 -0.000000 -0.000000 28.886461 -49.951212 56.625594 -0.000000 45.600559 0.000000 -2.782254 29.207817 3.632037 -0.000000 2.701581 -0.000000 0.000000 0.000000 0.000000 2.532103 46.956489 -2.601571 0.000000 12.286970 0.000000 -0.000000 0.000000 0.000000 -6.459263 -0.000000 1.808996 28.662284 -5.256551 -43.931963 180.000037 -70.932289 -180.000037 -9.987359 0.970540 -5.842748 -0.000000 -0.000000 -0.000000 1.018187 -0.000000 -3.160333 -54.130293 2.567435 -25.716727 -0.000227 -56.208657 -0.000121 -15.864658 8.740293 30.175148 -0.000000 0.000000 -0.000000 -0.000000 0.000000 0.000000 -2.661239 39.537735 8.588703 -0.000000 -0.000000 -0.000000 
120.811600 84.438500 56.858500 -8.360257 -22.547602 168.338980 -26.455941 -43.979136 -45.930489 0.000000 25.471680 -0.000000 7.507492 22.298511 -2.048621 -0.000000 7.160686 -0.000000 0.000000 -0.000000 -0.000000 26.802621 -48.176257 54.906647 -0.000000 48.093568 -0.000000 -2.560928 27.847673 2.042619 -0.000000 1.231015 0.000000 -0.000000 0.000000 -0.000000 2.259455 45.874204 -4.308809 -0.000000 12.389152 -0.000000 -0.000000 0.000000 -0.000000 -7.040233 0.000000 3.855507 29.119658 -5.330797 -44.010341 -180.000037 -70.898466 -180.000037 -9.905307 0.990012 -5.944296 -0.000000 -0.000000 0.000000 1.063127 -0.000000 -2.226715 -50.383637 5.661792 -25.549737 -0.000194 -51.934327 -0.000095 -16.650885 9.951025 27.427079 -0.000000 0.000000 -0.000000 -0.000000 0.000000 -0.000000 -4.930925 40.262836 10.955582 -0.000000 0.000000 -0.000000 
120.661600 83.962800 56.769500 -7.111380 -22.214331 167.449473 -24.697619 -44.314541 -44.680617 0.000000 26.363702 -0.000000 7.425557 21.824551 -2.332252 -0.000000 6.856447 -0.000000 0.000000 -0.000000 0.000000 24.276542 -45.092850 52.095234 -0.000000 46.986008 -0.000000 -3.309113 26.148618 0.421704 0.000000 -10.403193 -0.000000 0.000000 0.000000 -0.000000 2.400028 44.808504 -3.821210 -0.000000 12.764703 0.000000 -0.000000 0.000000 -0.000000 -7.140482 0.000000 3.300759 28.980503 -5.202758 -44.237376 180.000037 -70.877853 -180.000037 -9.709461 1.227148 -6.697568 -0.000000 0.000000 0.000000 1.145709 0.000000 -3.246510 -47.187119 7.609733 -24.619158 -0.000166 -47.445735 -0.000073 -15.840585 11.385153 23.397412 0.000000 -0.000000 -0.000000 -0.000000 0.000000 -0.000000 -5.206986 41.175022 10.590123 -0.000000 0.000000 0.000000 
120.366800 83.331900 56.648100 -5.714292 -22.069503 166.570064 -23.320176 -44.898591 -44.092707 -0.000000 27.790630 -0.000000 7.559863 21.323773 -2.570151 0.000000 6.764827 -0.000000 -0.000000 0.000000 0.000000 21.826411 -41.634212 48.968969 0.000000 42.215526 -0.000000 -3.421402 14.822011 -0.534511 -0.000000 -8.136215 0.000000 -0.000000 0.000000 -0.000000 2.771857 43.670904 -3.206316 0.000000 12.996786 -0.000000 0.000000 0.000000 -0.000000 -7.075277 -0.000000 2.277539 28.783733 -4.880010 -44.423827 -180.000037 -70.838115 -180.000037 -9.343745 1.407449 -7.406255 -0.000000 -0.000000 0.000000 1.171333 0.000000 -4.609614 -43.976382 8.793554 -23.279932 -0.000145 -43.634765 -0.000058 -14.612485 12.430633 21.201137 -0.000000 0.000000 0.000000 0.000000 0.000000 -0.000000 -5.523424 42.177409 10.061139 0.000000 -0.000000 0.000000 
120.118300 82.896000 56.665300 -4.583188 -22.177494 166.383694 -22.546124 -45.403452 -43.931738 -0.000000 28.799379 -0.000000 7.827590 21.250461 -2.939193 0.000000 6.662159 -0.000000 -0.000000 0.000000 -0.000000 20.461648 -40.201723 46.839846 -0.000000 39.305083 -0.000000 -2.355093 7.712386 0.446968 -0.000000 -5.556464 0.000000 -0.000000 0.000000 -0.000000 3.082525 42.740055 -3.116484 -0.000000 13.032150 -0.000000 -0.000000 -0.000000 -0.000000 -6.630105 0.000000 1.163267 28.617133 -4.660966 -44.348212 180.000037 -70.933853 -180.000037 -9.190642 1.650154 -7.698431 0.000000 0.000000 0.000000 1.599380 -0.000000 -5.727034 -40.562825 9.585348 -22.142069 -0.000132 -41.035194 -0.000050 -13.356336 12.980647 21.389399 -0.000000 0.000000 0.000000 -0.000000 -0.000000 -0.000000 -5.317682 42.654333 9.672482 0.000000 -0.000000 0.000000 
